<svg width="16" height="16" viewBox="0 0 16 16" fill="none" xmlns="http://www.w3.org/2000/svg">
<path fill-rule="evenodd" clip-rule="evenodd" d="M14 2H2C0.89543 2 0 2.89543 0 4V12C0 13.1046 0.89543 14 2 14H14C15.1046 14 16 13.1046 16 12V4C16 2.89543 15.1046 2 14 2ZM1 4C1 3.44772 1.44772 3 2 3H14C14.5523 3 15 3.44772 15 4V12C15 12.5523 14.5523 13 14 13H2C1.44772 13 1 12.5523 1 12V4Z" fill="#575757"/>
<path d="M2 10.461V5.5H4.11716C4.35487 5.5 4.5721 5.54884 4.77052 5.64671C4.96847 5.74448 5.13843 5.87246 5.2806 6.03056C5.42276 6.18922 5.53416 6.36836 5.61608 6.5691C5.69736 6.76928 5.73832 6.97177 5.73832 7.17705C5.73832 7.39594 5.69967 7.6053 5.62285 7.80603C5.54602 8.00621 5.43861 8.18535 5.30154 8.34401C5.16392 8.50211 4.99729 8.62834 4.80165 8.72101C4.60611 8.81424 4.38944 8.86095 4.15172 8.86095H3.14574V10.4612L2 10.461ZM3.14583 7.86164H4.08185C4.21715 7.86164 4.33374 7.80362 4.4316 7.68704C4.52938 7.57036 4.57831 7.40039 4.57831 7.17686C4.57831 7.06027 4.56292 6.96019 4.5328 6.87604C4.50268 6.79254 4.46172 6.72257 4.41057 6.66678C4.35941 6.61052 4.30084 6.57012 4.23597 6.54454C4.17054 6.51896 4.1052 6.50589 4.04042 6.50589H3.14592L3.14583 7.86164Z" fill="#575757"/>
<path d="M6.05541 10.461V5.5H7.90697C8.31705 5.5 8.67579 5.56478 8.98283 5.69555C9.29051 5.82575 9.54759 6.00258 9.75509 6.2262C9.96203 6.4502 10.1185 6.71182 10.2232 7.01255C10.3284 7.31282 10.3806 7.63356 10.3806 7.97303C10.3806 8.35059 10.3221 8.69182 10.206 8.99727C10.0895 9.30208 9.92283 9.56305 9.70616 9.77973C9.48948 9.9964 9.22851 10.1641 8.9237 10.283C8.61834 10.4019 8.27942 10.461 7.90687 10.461H6.05541ZM9.21377 7.97303C9.21377 7.75469 9.18421 7.55507 9.12619 7.37602C9.06818 7.19679 8.98283 7.04165 8.87143 6.91135C8.75939 6.78058 8.62176 6.68049 8.45912 6.61052C8.29592 6.54055 8.11168 6.50589 7.90697 6.50589H7.20124V9.45499H7.90697C8.11687 9.45499 8.30278 9.41746 8.46598 9.34295C8.62918 9.26844 8.76514 9.16492 8.87486 9.03193C8.98403 8.89941 9.06818 8.74307 9.12619 8.56393C9.18421 8.38479 9.21377 8.18748 9.21377 7.97303Z" fill="#575757"/>
<path d="M10.6324 10.461V5.5H14V6.50589H11.7782V7.57499H13.6087V8.50415H11.7782V10.4609L10.6324 10.461Z" fill="#575757"/>
</svg>
