<svg width="16" height="16" viewBox="0 0 16 16" fill="none" xmlns="http://www.w3.org/2000/svg">
<path fill-rule="evenodd" clip-rule="evenodd" d="M14 2H2C0.89543 2 0 2.89543 0 4V12C0 13.1046 0.89543 14 2 14H14C15.1046 14 16 13.1046 16 12V4C16 2.89543 15.1046 2 14 2ZM1 4C1 3.44772 1.44772 3 2 3H14C14.5523 3 15 3.44772 15 4V12C15 12.5523 14.5523 13 14 13H2C1.44772 13 1 12.5523 1 12V4Z" fill="#575757"/>
<path fill-rule="evenodd" clip-rule="evenodd" d="M5.07943 8.41101H6.82413V10.4762C6.57264 10.6597 6.30487 10.7929 6.02082 10.8758C5.73678 10.9586 5.43982 11 5.12995 11C4.72577 11 4.35809 10.9368 4.02689 10.8103C3.69569 10.6838 3.4122 10.5092 3.17643 10.2864C2.94066 10.0637 2.75878 9.79953 2.63079 9.49396C2.5028 9.18838 2.43881 8.85651 2.43881 8.49832C2.43881 8.13342 2.49944 7.79819 2.62069 7.49261C2.74194 7.18704 2.9154 6.92344 3.14107 6.70181C3.36673 6.48019 3.63955 6.30781 3.95952 6.18469C4.2795 6.06156 4.63708 6 5.03228 6C5.23661 6 5.42859 6.01679 5.60823 6.05037C5.78786 6.08395 5.95346 6.12984 6.10503 6.18805C6.2566 6.24625 6.39525 6.31565 6.52099 6.39624C6.64674 6.47683 6.75901 6.56414 6.85781 6.65816L6.52773 7.1585C6.47608 7.23685 6.40928 7.28498 6.32733 7.30289C6.24537 7.3208 6.15724 7.30065 6.06293 7.24244C5.97311 7.18872 5.88835 7.14227 5.80863 7.10309C5.72892 7.06391 5.64752 7.03201 5.56444 7.00739C5.48136 6.98276 5.39379 6.96485 5.30173 6.95366C5.20966 6.94247 5.10638 6.93687 4.99186 6.93687C4.77854 6.93687 4.58656 6.97437 4.41591 7.04936C4.24525 7.12436 4.09986 7.23013 3.97973 7.36669C3.8596 7.50325 3.76698 7.66723 3.70186 7.85863C3.63674 8.05003 3.60419 8.26326 3.60419 8.49832C3.60419 8.758 3.64011 8.98858 3.71197 9.19006C3.78382 9.39154 3.88543 9.56167 4.01678 9.70047C4.14814 9.83927 4.30532 9.94504 4.48832 10.0178C4.67133 10.0906 4.87397 10.1269 5.09627 10.1269C5.23324 10.1269 5.3573 10.1135 5.46845 10.0866C5.5796 10.0598 5.68794 10.024 5.79348 9.97918V9.23707H5.30846C5.23661 9.23707 5.18048 9.21804 5.14006 9.17999C5.09964 9.14193 5.07943 9.0938 5.07943 9.03559V8.41101ZM9.093 10.9463H7.94783V6.05371H9.093V10.9463ZM11.5474 8.16587V6.92678H13.5615V6.05371H10.4022V10.9463H11.5474V9.0423H13.2247V8.16587H11.5474Z" fill="#575757"/>
</svg>
