<svg width="16" height="16" viewBox="0 0 16 16" fill="none" xmlns="http://www.w3.org/2000/svg">
<path d="M5.5 5.25C5.5 5.66421 5.16421 6 4.75 6C4.33579 6 4 5.66421 4 5.25C4 4.83579 4.33579 4.5 4.75 4.5C5.16421 4.5 5.5 4.83579 5.5 5.25Z" fill="#575757"/>
<path fill-rule="evenodd" clip-rule="evenodd" d="M8 2.5H4C2.89543 2.5 2 3.39543 2 4.5V11.5C2 12.6046 2.89543 13.5 4 13.5H8C9.10457 13.5 10 12.6046 10 11.5V10.9L12.6286 11.9514C12.7467 11.9987 12.8728 12.023 13 12.023C13.5523 12.023 14 11.5752 14 11.023V4.97702C14 4.8498 13.9757 4.72375 13.9285 4.60563C13.7234 4.09285 13.1414 3.84343 12.6286 4.04855L10 5.09999V4.5C10 3.39543 9.10457 2.5 8 2.5ZM10 6.17702V9.82295L13 11.0229V4.97702L10 6.17702ZM9 4.5C9 3.94772 8.55228 3.5 8 3.5H4C3.44772 3.5 3 3.94772 3 4.5V11.5C3 12.0523 3.44772 12.5 4 12.5H8C8.55228 12.5 9 12.0523 9 11.5V4.5Z" fill="#575757"/>
</svg>
